<svg width="196" height="472" viewBox="0 0 196 472" fill="none" xmlns="http://www.w3.org/2000/svg">
<path fill-rule="evenodd" clip-rule="evenodd" d="M-40.2554 2.02541C-40.1212 64.2194 -15.2032 123.835 29.0597 167.86C73.3224 211.886 133.336 236.745 196 237.013C133.294 237.147 73.2036 261.963 28.9117 306.017C-15.3801 350.072 -40.2555 409.765 -40.2554 472C-40.0537 441.074 -45.9907 410.413 -57.729 381.764C-69.4672 353.116 -86.7762 327.043 -108.667 305.034C-130.558 283.026 -156.603 265.511 -185.314 253.493C-214.025 241.474 -244.84 235.186 -276 234.987C-213.289 234.721 -153.223 209.877 -108.879 165.866C-64.535 121.855 -39.5024 62.2404 -39.2338 0" fill="#27365B"/>
</svg>
